<?xml version="1.0" encoding="UTF-8"?>
<!DOCTYPE svg PUBLIC "-//W3C//DTD SVG 1.1//EN" "http://www.w3.org/Graphics/SVG/1.1/DTD/svg11.dtd">
<!-- Creator: CorelDRAW 2018 (64-Bit) -->
<svg xmlns="http://www.w3.org/2000/svg" xml:space="preserve" width="300mm" height="300mm" version="1.1" style="shape-rendering:geometricPrecision; text-rendering:geometricPrecision; image-rendering:optimizeQuality; fill-rule:evenodd; clip-rule:evenodd"
viewBox="0 0 24907.48 24907.48"
 xmlns:xlink="http://www.w3.org/1999/xlink">
 <defs>
  <style type="text/css">
   <![CDATA[
    .str0 {stroke:#FEFEFE;stroke-width:73.04;stroke-miterlimit:22.9256}
    .fil3 {fill:none}
    .fil0 {fill:#FEFEFE}
    .fil2 {fill:#FEFAF2}
    .fil1 {fill:#F77730}
   ]]>
  </style>
 </defs>
 <g id="Layer_x0020_1">
  <metadata id="CorelCorpID_0Corel-Layer"/>
  <polygon class="fil0" points="278.78,8377.41 4399.85,22767.13 24830.46,12108.99 17173.94,5014.45 "/>
  <polygon class="fil1" points="1369.82,9042.88 4939.99,21508.98 23341.44,11909.42 16956.01,5949.71 "/>
  <path class="fil2" d="M12418.11 13698.65l242.48 -68.91c-41.41,-62.52 -77.38,-128.98 -107.33,-199.39 -39.73,-93.49 -70.92,-202.02 -99.47,-299.99 -51.42,-176.42 -98.16,-354.84 -143.66,-533.01l-158.74 -621.17c-31.84,-124.6 -72.2,-289.44 -123.39,-402.86 -45.72,-93.89 -105.83,-181.17 -186.24,-243.54 -85.12,-66.02 -204.43,-92.97 -306.06,-104.59 -167.65,-19.21 -356.6,19.03 -517.49,64.75 -183.47,52.11 -367.33,129.64 -523.3,246.82 -116.78,87.75 -221.3,199.24 -277.83,342.76 -45.03,114.15 -61.9,241.64 -63.25,367.41l245.69 -31.37c6.46,-158.05 38.93,-320.41 130.04,-444.17 111.2,-150.96 303.39,-232.22 471.66,-280.06 194.79,-55.36 414.08,-75.37 601.67,25.93 154.43,83.41 233.46,264.21 277.13,435.11 10.55,41.3 19.79,83.52 29.32,125.15l16.29 71.36 -55.73 40.83c-215.64,158.01 -505.55,286.37 -747.7,390.12 -115.94,49.63 -245.66,105.35 -353.68,172.66 -93.49,58.28 -176.13,131.39 -246.64,219.65 -66.61,83.48 -110.14,179.85 -133.91,287.51 -25.09,113.72 -20.34,227.8 8.62,341.19 49.96,195.37 152.32,341.3 319.75,434.78 196.1,109.41 426.89,88.15 631.43,30.02 151.91,-43.16 294.19,-111.27 421.34,-210.53 142.09,-110.9 261.21,-263.44 359.55,-419.12l104.92 -166.08 67.92 189.78c29.91,83.55 67.78,165.75 116.6,238.97zm-450.16 -1411.49l78.11 325.26c41.7,163.2 79.65,364.96 51.56,532.87 -29.98,179.23 -110.98,332.28 -230.79,458.55 -127.92,134.71 -284.07,221.26 -456.62,270.27 -157.57,44.77 -331.11,57.52 -482.8,-23.04 -133.18,-70.74 -222.9,-186.5 -262.34,-340.78 -25.64,-100.31 -24.39,-201.69 4.97,-299.88 30.09,-100.79 87.06,-183.43 163.23,-248.8 101.67,-87.2 256.9,-160.5 376.39,-214.87 207.9,-94.65 460.49,-216.22 640.74,-363.54l117.55 -96.04zm2356.94 -1267.97l226.08 -102.43c-48.17,-94.14 -108.53,-184.38 -184.23,-250.7 -97.03,-84.98 -226.23,-121.06 -347.36,-135.34 -172.11,-20.34 -347.58,5.11 -513.4,52.26 -116.89,33.23 -228.86,81.65 -331.84,149.69 -76.54,50.61 -157.79,114.45 -214.62,190.33 -61.68,82.35 -104.11,174.74 -125.99,278.59 -21.91,104 -17.93,208.26 8.51,311.75 29,113.57 82.06,211.33 161.45,292.47 83.01,84.87 183.39,133.25 294.52,156.3 206.62,42.84 484.3,37.07 694.24,35.2 134.71,-1.24 385.26,-6.35 513.4,38.64 130.48,45.76 221.77,143.19 258.44,286.67 40.24,157.43 5.4,305.91 -78.92,437.16 -105.1,163.6 -290.32,249.12 -463.38,298.28 -184.38,52.4 -385.3,65.66 -563.91,-24.17 -139.94,-70.37 -241.93,-186.35 -314.71,-327.38l-227.07 109.08c94.58,180 223.42,332.71 403.92,417.58 230.76,108.57 515.38,68.73 748.87,2.37 171.16,-48.64 334.25,-125.99 472.5,-245.8 114.67,-99.37 203.81,-221.59 250.07,-373.87 41.48,-136.5 48.09,-273.96 12.38,-413.71 -30.89,-120.95 -83.3,-234.55 -173.9,-316.61 -86.26,-78.11 -187.15,-122.44 -297.58,-140.01 -213.26,-33.96 -464.07,-32.79 -679.31,-34.22 -133.07,-0.88 -288.16,2.63 -422.55,-12.6 -86.8,-11.9 -173.86,-40.21 -244.67,-98.49 -64.27,-52.84 -108.71,-122.66 -130.15,-206.54 -35.06,-137.16 2.01,-266.51 78.84,-376.86 100.35,-144.25 291.6,-220.31 447.93,-264.72 157.72,-44.81 331.11,-58.57 484.77,16.36 111.67,54.48 196.47,141.43 257.63,250.73zm721.67 -1585.5l242.41 -68.87 -83.55 -327.02 -242.41 68.87 83.55 327.02zm838.19 3279.89l242.41 -68.91 -653.71 -2557.97 -242.41 68.91 653.71 2557.97zm1982.59 -2701.04l226.05 -102.43c-48.09,-94.14 -108.53,-184.34 -184.2,-250.66 -97.03,-84.98 -226.23,-121.06 -347.39,-135.37 -172.11,-20.3 -347.58,5.15 -513.37,52.26 -116.93,33.27 -228.86,81.73 -331.84,149.72 -76.54,50.58 -157.83,114.41 -214.62,190.26 -61.64,82.42 -104.11,174.77 -125.99,278.67 -21.95,104 -17.93,208.26 8.51,311.75 29,113.5 82.06,211.33 161.45,292.47 83.01,84.87 183.39,133.22 294.48,156.3 206.65,42.84 484.34,37.07 694.28,35.2 134.71,-1.24 385.26,-6.32 513.37,38.6 130.55,45.79 221.77,143.19 258.47,286.7 40.21,157.43 5.4,305.91 -78.92,437.16 -105.17,163.56 -290.32,249.12 -463.38,298.28 -184.38,52.4 -385.34,65.66 -563.95,-24.21 -139.9,-70.37 -241.93,-186.31 -314.67,-327.35l-227.1 109.08c94.58,179.96 223.45,332.71 403.96,417.58 230.76,108.53 515.34,68.73 748.87,2.37 171.12,-48.64 334.21,-126.02 472.47,-245.8 114.63,-99.33 203.88,-221.59 250.11,-373.87 41.48,-136.54 48.06,-273.99 12.38,-413.71 -30.93,-120.98 -83.3,-234.59 -173.9,-316.61 -86.29,-78.08 -187.15,-122.44 -297.62,-140.05 -213.26,-33.96 -464.07,-32.76 -679.27,-34.18 -133.07,-0.88 -288.2,2.63 -422.58,-12.6 -86.8,-11.9 -173.86,-40.24 -244.67,-98.49 -64.27,-52.84 -108.68,-122.66 -130.11,-206.54 -35.06,-137.2 1.97,-266.51 78.81,-376.9 100.35,-144.21 291.63,-220.28 447.96,-264.68 157.68,-44.81 331.07,-58.57 484.74,16.36 111.71,54.45 196.5,141.47 257.67,250.7z"/>
  <g id="_2606644106848">
   <path class="fil3 str0" d="M6513.14 11113.59c1294.63,-300.69 2917.96,795.1 3234.57,2183.44 316.65,1388.34 -793.35,2543.54 -2087.98,2844.23 -1294.67,300.69 -2600.84,-581.04 -2917.48,-1969.37 -316.61,-1388.34 476.23,-2757.61 1770.9,-3058.3z"/>
   <path class="fil3 str0" d="M6767.96 11054.39c-1294.63,300.72 -2279.99,2002.38 -1963.35,3390.72 316.61,1388.37 1815.3,1937.64 3109.93,1636.95 1294.67,-300.69 2087.51,-1669.92 1770.9,-3058.3 -316.65,-1388.34 -1622.82,-2270.06 -2917.48,-1969.37z"/>
   <path class="fil3 str0" d="M7914.55 16082.06c-1294.63,300.69 -3251,-717.76 -3567.61,-2106.09 -316.61,-1388.34 1126.39,-2620.85 2421.02,-2921.57 1294.67,-300.69 2600.84,581.04 2917.48,1969.37 316.61,1388.37 -476.23,2757.61 -1770.9,3058.3z"/>
   <path class="fil3 str0" d="M7062.26 11023.61c1332.72,25.67 2686.87,1482.44 2698.19,2902.77 11.32,1420.29 -1324.47,2266.26 -2657.22,2240.59 -1332.76,-25.67 -2422.34,-1197.86 -2433.66,-2618.15 -11.32,-1420.33 1059.93,-2550.88 2392.69,-2525.21z"/>
   <path class="fil3 str0" d="M8966.3 11934.36c856.53,1112.22 690.7,3123.04 -330.41,4006.74 -1021.15,883.7 -2510.89,305.62 -3367.46,-806.57 -856.53,-1112.22 -723.09,-2730.22 298.02,-3613.92 1021.15,-883.7 2543.29,-698.44 3399.85,413.75z"/>
   <path class="fil3 str0" d="M9342.22 14043.49c-243.03,1389.36 -1808.11,2490.88 -3118.59,2194.87 -1310.44,-296.01 -1870.04,-1877.46 -1627.02,-3266.81 242.99,-1389.36 1502.34,-2275.68 2812.82,-1979.67 1310.44,296.01 2175.77,1662.29 1932.78,3051.61z"/>
   <path class="fil3 str0" d="M8450.67 15967.54c-1165.72,655.39 -2991.1,46.01 -3637.21,-1214.33 -646.11,-1260.3 80.01,-3132.5 1245.7,-3787.92 1165.69,-655.42 2767.32,-373.4 3413.43,886.91 646.07,1260.3 143.77,3459.96 -1021.92,4115.34z"/>
  </g>
  <rect class="fil3" x="-0.02" y="-0.02" width="24907.48" height="24907.48"/>
 </g>
</svg>
